<svg width="17" height="16" viewBox="0 0 17 16" fill="none" xmlns="http://www.w3.org/2000/svg">
<g clip-path="url(#clip0_38_2876)">
<path d="M8.5 0C6.91775 0 5.37104 0.469192 4.05544 1.34824C2.73985 2.22729 1.71447 3.47672 1.10897 4.93853C0.503466 6.40034 0.34504 8.00887 0.653721 9.56072C0.962403 11.1126 1.72433 12.538 2.84315 13.6569C3.96197 14.7757 5.38743 15.5376 6.93928 15.8463C8.49113 16.155 10.0997 15.9965 11.5615 15.391C13.0233 14.7855 14.2727 13.7602 15.1518 12.4446C16.0308 11.129 16.5 9.58225 16.5 8C16.4977 5.87897 15.6541 3.84547 14.1543 2.34568C12.6545 0.845886 10.621 0.00229405 8.5 0ZM8.5 1.33333C10.0377 1.33211 11.528 1.86517 12.716 2.84133L3.34134 12.216C2.54171 11.2399 2.03578 10.0567 1.88241 8.80429C1.72905 7.55182 1.93458 6.28156 2.47506 5.14136C3.01555 4.00116 3.86876 3.03792 4.93539 2.36376C6.00202 1.68961 7.23819 1.33227 8.5 1.33333ZM8.5 14.6667C6.96236 14.6679 5.47205 14.1348 4.284 13.1587L13.6587 3.784C14.4583 4.76011 14.9642 5.94325 15.1176 7.19572C15.271 8.44818 15.0654 9.71844 14.5249 10.8586C13.9845 11.9988 13.1312 12.9621 12.0646 13.6362C10.998 14.3104 9.76182 14.6677 8.5 14.6667Z" fill="white"/>
</g>
<defs>
<clipPath id="clip0_38_2876">
<rect width="16" height="16" fill="white" transform="translate(0.5)"/>
</clipPath>
</defs>
</svg>
