<svg width="20" height="21" viewBox="0 0 20 21" fill="none" xmlns="http://www.w3.org/2000/svg">
<g clip-path="url(#clip0_83_1339)">
<path d="M19.3923 8.72417C18.0998 6.61917 15.1598 3.0875 9.9998 3.0875C4.8398 3.0875 1.8998 6.61917 0.607299 8.72417C0.207739 9.37042 -0.00390625 10.1152 -0.00390625 10.875C-0.00390625 11.6348 0.207739 12.3796 0.607299 13.0258C1.8998 15.1308 4.8398 18.6625 9.9998 18.6625C15.1598 18.6625 18.0998 15.1308 19.3923 13.0258C19.7919 12.3796 20.0035 11.6348 20.0035 10.875C20.0035 10.1152 19.7919 9.37042 19.3923 8.72417ZM17.9715 12.1533C16.8615 13.9583 14.349 16.9958 9.9998 16.9958C5.65063 16.9958 3.13813 13.9583 2.02813 12.1533C1.79074 11.7692 1.66501 11.3266 1.66501 10.875C1.66501 10.4234 1.79074 9.9808 2.02813 9.59667C3.13813 7.79167 5.65063 4.75417 9.9998 4.75417C14.349 4.75417 16.8615 7.78833 17.9715 9.59667C18.2089 9.9808 18.3346 10.4234 18.3346 10.875C18.3346 11.3266 18.2089 11.7692 17.9715 12.1533Z" fill="#D2D2D2"/>
<path d="M9.99968 6.70833C9.17559 6.70833 8.37001 6.9527 7.6848 7.41054C6.9996 7.86838 6.46554 8.51913 6.15018 9.28048C5.83481 10.0418 5.7523 10.8796 5.91307 11.6879C6.07384 12.4961 6.47068 13.2386 7.0534 13.8213C7.63612 14.404 8.37855 14.8008 9.1868 14.9616C9.99505 15.1224 10.8328 15.0399 11.5942 14.7245C12.3555 14.4091 13.0063 13.8751 13.4641 13.1899C13.922 12.5047 14.1663 11.6991 14.1663 10.875C14.165 9.77034 13.7256 8.7113 12.9445 7.93018C12.1634 7.14907 11.1043 6.70966 9.99968 6.70833ZM9.99968 13.375C9.50522 13.375 9.02187 13.2284 8.61075 12.9537C8.19963 12.679 7.8792 12.2885 7.68998 11.8317C7.50076 11.3749 7.45125 10.8722 7.54771 10.3873C7.64418 9.90232 7.88228 9.45686 8.23191 9.10723C8.58154 8.7576 9.027 8.5195 9.51195 8.42304C9.9969 8.32657 10.4996 8.37608 10.9564 8.5653C11.4132 8.75452 11.8036 9.07495 12.0784 9.48607C12.3531 9.8972 12.4997 10.3805 12.4997 10.875C12.4997 11.538 12.2363 12.1739 11.7674 12.6428C11.2986 13.1116 10.6627 13.375 9.99968 13.375Z" fill="#D2D2D2"/>
</g>
<defs>
<clipPath id="clip0_83_1339">
<rect width="20" height="20" fill="white" transform="translate(0 0.875)"/>
</clipPath>
</defs>
</svg>
