<svg width="24" height="24" viewBox="0 0 24 24" fill="none" xmlns="http://www.w3.org/2000/svg">
<g clip-path="url(#clip0_642_190)">
<path d="M18.581 2.14L12.316 0.0509967C12.1109 -0.0173244 11.8891 -0.0173244 11.684 0.0509967L5.419 2.14C4.42291 2.47088 3.55642 3.10725 2.94265 3.95871C2.32887 4.81016 1.99904 5.83338 2 6.883V12C2 19.563 11.2 23.74 11.594 23.914C11.7218 23.9708 11.8601 24.0001 12 24.0001C12.1399 24.0001 12.2782 23.9708 12.406 23.914C12.8 23.74 22 19.563 22 12V6.883C22.001 5.83338 21.6711 4.81016 21.0574 3.95871C20.4436 3.10725 19.5771 2.47088 18.581 2.14ZM20 12C20 17.455 13.681 21.033 12 21.889C10.317 21.036 4 17.469 4 12V6.883C4.00006 6.25327 4.19828 5.63954 4.56657 5.12874C4.93486 4.61794 5.45455 4.23599 6.052 4.037L12 2.054L17.948 4.037C18.5455 4.23599 19.0651 4.61794 19.4334 5.12874C19.8017 5.63954 19.9999 6.25327 20 6.883V12Z" fill="white"/>
<path d="M15.3 8.30001L11.112 12.5L8.86798 10.16C8.77792 10.0616 8.66907 9.98211 8.54784 9.92636C8.4266 9.87062 8.29544 9.8397 8.16207 9.83543C8.0287 9.83115 7.89583 9.85362 7.77128 9.90149C7.64673 9.94937 7.53302 10.0217 7.43685 10.1142C7.34068 10.2067 7.26399 10.3175 7.21131 10.4401C7.15862 10.5627 7.13101 10.6946 7.13009 10.828C7.12917 10.9615 7.15496 11.0937 7.20595 11.217C7.25694 11.3403 7.33209 11.4522 7.42698 11.546L9.73298 13.946C9.90495 14.1318 10.1128 14.2807 10.344 14.3838C10.5752 14.487 10.8249 14.5421 11.078 14.546H11.111C11.359 14.5468 11.6048 14.4984 11.834 14.4034C12.0631 14.3085 12.2712 14.169 12.446 13.993L16.718 9.72101C16.8113 9.62791 16.8853 9.51733 16.9359 9.39561C16.9865 9.27388 17.0126 9.14339 17.0127 9.01157C17.0129 8.87976 16.987 8.74921 16.9367 8.62738C16.8864 8.50555 16.8126 8.39482 16.7195 8.30151C16.6264 8.20821 16.5158 8.13416 16.3941 8.08359C16.2723 8.03302 16.1419 8.00691 16.01 8.00678C15.8782 8.00664 15.7477 8.03246 15.6258 8.08277C15.504 8.13309 15.3933 8.20691 15.3 8.30001Z" fill="white"/>
</g>
<defs>
<clipPath id="clip0_642_190">
<rect width="24" height="24" fill="white"/>
</clipPath>
</defs>
</svg>
