<svg width="16" height="16" viewBox="0 0 16 16" fill="none" xmlns="http://www.w3.org/2000/svg">
<g clip-path="url(#clip0_30_1913)">
<path d="M11.3335 5.33333H4.66683V4.66667C4.66662 3.9276 4.91205 3.20943 5.36451 2.62505C5.81697 2.04067 6.45081 1.62324 7.16638 1.43837C7.88195 1.25351 8.63867 1.3117 9.31757 1.60379C9.99646 1.89589 10.559 2.40532 10.9168 3.052C10.9593 3.12856 11.0165 3.196 11.0851 3.25047C11.1536 3.30494 11.2323 3.34536 11.3165 3.36945C11.4006 3.39353 11.4888 3.40079 11.5758 3.39082C11.6628 3.38085 11.7469 3.35384 11.8235 3.31134C11.9001 3.26883 11.9675 3.21166 12.022 3.14309C12.0764 3.07453 12.1169 2.9959 12.1409 2.91171C12.165 2.82752 12.1723 2.73941 12.1623 2.65241C12.1523 2.56541 12.1253 2.48123 12.0828 2.40467C11.5817 1.49954 10.794 0.786615 9.84352 0.377944C8.89306 -0.0307265 7.83374 -0.111965 6.83208 0.146999C5.83041 0.405962 4.94321 0.990444 4.30991 1.80857C3.67662 2.62669 3.33315 3.63207 3.3335 4.66667V5.616C2.73974 5.87514 2.23436 6.30168 1.87916 6.84348C1.52397 7.38527 1.33435 8.01882 1.3335 8.66667V12.6667C1.33455 13.5504 1.68608 14.3976 2.31098 15.0225C2.93587 15.6474 3.7831 15.9989 4.66683 16H11.3335C12.2172 15.9989 13.0645 15.6474 13.6893 15.0225C14.3142 14.3976 14.6658 13.5504 14.6668 12.6667V8.66667C14.6658 7.78294 14.3142 6.93571 13.6893 6.31081C13.0645 5.68592 12.2172 5.33439 11.3335 5.33333ZM13.3335 12.6667C13.3335 13.1971 13.1228 13.7058 12.7477 14.0809C12.3726 14.456 11.8639 14.6667 11.3335 14.6667H4.66683C4.1364 14.6667 3.62769 14.456 3.25262 14.0809C2.87754 13.7058 2.66683 13.1971 2.66683 12.6667V8.66667C2.66683 8.13624 2.87754 7.62753 3.25262 7.25245C3.62769 6.87738 4.1364 6.66667 4.66683 6.66667H11.3335C11.8639 6.66667 12.3726 6.87738 12.7477 7.25245C13.1228 7.62753 13.3335 8.13624 13.3335 8.66667V12.6667Z" fill="white"/>
<path d="M8.00016 9.33333C7.82335 9.33333 7.65378 9.40357 7.52876 9.52859C7.40373 9.65361 7.3335 9.82318 7.3335 9.99999V11.3333C7.3335 11.5101 7.40373 11.6797 7.52876 11.8047C7.65378 11.9298 7.82335 12 8.00016 12C8.17697 12 8.34654 11.9298 8.47157 11.8047C8.59659 11.6797 8.66683 11.5101 8.66683 11.3333V9.99999C8.66683 9.82318 8.59659 9.65361 8.47157 9.52859C8.34654 9.40357 8.17697 9.33333 8.00016 9.33333Z" fill="white"/>
</g>
<defs>
<clipPath id="clip0_30_1913">
<rect width="16" height="16" fill="white"/>
</clipPath>
</defs>
</svg>
